<svg width="36" height="36" viewBox="0 0 36 36" fill="none" xmlns="http://www.w3.org/2000/svg">
<path fill-rule="evenodd" clip-rule="evenodd" d="M14.63 31C16.7 31 21.08 28.82 24 27V29.42C21.18 31.05 17.06 33.05 14.63 33.05H8.20997C7.98902 33.0493 7.77452 32.9755 7.59997 32.84L7.59784 32.8383C7.47225 32.738 5.27811 30.9861 3.39997 25.62C2.39534 22.515 1.92202 19.2626 1.99997 16C1.99997 15.4477 2.44769 15 2.99997 15H11V7.00001C11 4.60001 13.25 3.38001 14.59 3.00001C15.0843 2.86922 15.5976 3.13235 15.78 3.61001C15.8 3.67001 18.21 10.27 20.09 12.78C21.0937 14.1195 22.4463 15.1573 24 15.78V17.91C21.814 17.2021 19.8932 15.8495 18.49 14.03C16.88 11.88 15.03 7.31001 14.26 5.31001C13.5603 5.5977 13.076 6.24734 13 7.00001V17H3.99997C4.03839 19.6914 4.48342 22.3616 5.31997 24.92C5.98598 27.1558 7.1136 29.2271 8.62997 31H14.63ZM34 32H27C26.4477 32 26 31.5523 26 31V15C26 14.4477 26.4477 14 27 14H34V32ZM28 30H32V16H28V30Z" fill="#FAFAFA"/>
</svg>
