<svg width="36" height="36" viewBox="0 0 36 36" fill="none" xmlns="http://www.w3.org/2000/svg">
<path fill-rule="evenodd" clip-rule="evenodd" d="M18 2C9.16344 2 2 9.16344 2 18C2 26.8366 9.16344 34 18 34C26.8366 34 34 26.8366 34 18C34 13.7565 32.3143 9.68687 29.3137 6.68629C26.3131 3.68571 22.2435 2 18 2ZM26.54 18C26.5358 16.6554 26.3917 15.3148 26.11 14H29.71C29.5246 13.4516 29.3007 12.9169 29.04 12.4H25.69C25.0603 10.2961 24.0835 8.31209 22.8 6.53C21.98 6.1852 21.125 5.93038 20.25 5.77C22.0083 7.65924 23.3356 9.90769 24.14 12.36H18.75V5.6H17.98H17.25V12.37H11.86C12.6661 9.91324 13.9968 7.6612 15.76 5.77C14.8888 5.9277 14.0372 6.17916 13.22 6.52C11.9315 8.29462 10.948 10.2718 10.31 12.37H6.94C6.67457 12.8963 6.44732 13.4411 6.26 14H9.89C9.60829 15.3148 9.46418 16.6554 9.46 18C9.46276 19.4708 9.63048 20.9366 9.96 22.37H6.42C6.62688 22.9305 6.8742 23.4753 7.16 24H10.39C11.0022 25.9158 11.9098 27.7242 13.08 29.36C13.918 29.7194 14.7934 29.9844 15.69 30.15C14.0579 28.3698 12.8028 26.2778 12 24H17.26V30.34H17.99H18.76V24H24C23.1945 26.2788 21.9359 28.3708 20.3 30.15C21.2008 29.9787 22.0796 29.707 22.92 29.34C24.0883 27.7104 24.9959 25.9088 25.61 24H28.81C29.0945 23.485 29.3418 22.9503 29.55 22.4H26C26.3452 20.9584 26.5264 19.4823 26.54 18ZM17.25 22.37H11.51C10.806 19.6178 10.7751 16.7366 11.42 13.97H17.25V22.37ZM18.75 22.37H24.49C24.8369 20.9395 25.0081 19.472 25 18C25.0081 16.6552 24.8673 15.3137 24.58 14H18.75V22.37ZM4 18C4 25.732 10.268 32 18 32C21.713 32 25.274 30.525 27.8995 27.8995C30.525 25.274 32 21.713 32 18C32 10.268 25.732 4 18 4C10.268 4 4 10.268 4 18Z" fill="#FAFAFA"/>
</svg>
