<svg width="36" height="36" viewBox="0 0 36 36" fill="none" xmlns="http://www.w3.org/2000/svg">
<path fill-rule="evenodd" clip-rule="evenodd" d="M30.92 15.88C32.4901 19.0452 33.4469 22.479 33.74 26H31.73C31.4333 22.8102 30.5627 19.7002 29.16 16.82C27.7596 14.1933 25.7501 11.9404 23.3 10.25C22.9096 9.96024 22.4985 9.69954 22.07 9.47L24.57 4H11.36L13.21 8H20.45L19.54 10H18.76C19.3429 11.537 19.7717 13.1282 20.04 14.75C20.2091 15.7424 20.316 16.7443 20.36 17.75L18.78 18.86C18.7843 17.5665 18.6772 16.2751 18.46 15C18.1943 13.2824 17.7208 11.6034 17.05 10H16.05C15.1399 11.1724 14.3209 12.4127 13.6 13.71C13.013 14.8257 12.5147 15.986 12.11 17.18L10.74 16.26C11.1399 15.1092 11.6315 13.9922 12.21 12.92C12.778 11.9123 13.4023 10.9375 14.08 10H13.08C10.437 11.6832 8.27922 14.0271 6.81999 16.8C4.74999 20.67 4.19999 25.64 4.05999 28.25C4.03018 28.7051 4.19355 29.1516 4.50999 29.48C4.82574 29.8108 5.26269 29.9986 5.71999 30H12V31.94H5.79999C4.77985 31.9668 3.79202 31.581 3.05999 30.87C2.36297 30.1459 2.0004 29.1633 2.05999 28.16C2.23999 24.77 2.90999 19.88 5.05999 15.88C6.55817 13.0334 8.71047 10.5829 11.34 8.73L8.88999 3.42C8.7465 3.10995 8.77122 2.74809 8.95556 2.46044C9.1399 2.17279 9.45834 1.99916 9.79999 2H26.13C26.4483 2.00468 26.7454 2.16064 26.93 2.42C27.1308 2.71673 27.1575 3.0982 27 3.42L24.6 8.71C27.2488 10.5612 29.4159 13.0197 30.92 15.88ZM26.7 28H33.7C34.2523 28 34.7 28.4477 34.7 29C34.7 29.5523 34.2523 30 33.7 30H26.7C26.1477 30 25.7 29.5523 25.7 29C25.7 28.4477 26.1477 28 26.7 28ZM22 32H16C15.4477 32 15 32.4477 15 33C15 33.5523 15.4477 34 16 34H22C22.5523 34 23 33.5523 23 33C23 32.4477 22.5523 32 22 32ZM25.7 32H32.7C33.2523 32 33.7 32.4477 33.7 33C33.7 33.5523 33.2523 34 32.7 34H25.7C25.1477 34 24.7 33.5523 24.7 33C24.7 32.4477 25.1477 32 25.7 32ZM21.6 29C21.6 28.4477 21.1523 28 20.6 28H14.6C14.0477 28 13.6 28.4477 13.6 29C13.6 29.5523 14.0477 30 14.6 30H20.6C21.1523 30 21.6 29.5523 21.6 29ZM16.54 24H22.54C23.0923 24 23.54 24.4477 23.54 25C23.54 25.5523 23.0923 26 22.54 26H16.54C15.9877 26 15.54 25.5523 15.54 25C15.54 24.4477 15.9877 24 16.54 24Z" fill="#FAFAFA"/>
</svg>
