<svg width="36" height="36" viewBox="0 0 36 36" fill="none" xmlns="http://www.w3.org/2000/svg">
<path fill-rule="evenodd" clip-rule="evenodd" d="M14.1694 17.8335C14.0136 18.2087 13.6463 18.4524 13.24 18.45C12.9713 18.4463 12.7154 18.3346 12.53 18.14L6.42001 12L12.53 5.86004C12.7819 5.60638 13.15 5.50636 13.4956 5.59766C13.8412 5.68896 14.1118 5.9577 14.2056 6.30266C14.2993 6.64762 14.2019 7.01638 13.95 7.27004L10.24 11H28.12C28.6723 11 29.12 11.4478 29.12 12C29.12 12.5523 28.6723 13 28.12 13H10.24L13.95 16.74C14.2385 17.0261 14.3252 17.4583 14.1694 17.8335ZM22.01 16.82C22.4049 16.4307 23.0407 16.4352 23.43 16.83L29.53 23L23.42 29.11C23.1681 29.3637 22.8001 29.4637 22.4545 29.3724C22.1089 29.2811 21.8382 29.0124 21.7445 28.6674C21.6507 28.3225 21.7481 27.9537 22 27.7L25.72 24H7.83001C7.27773 24 6.83001 23.5523 6.83001 23C6.83001 22.4478 7.27773 22 7.83001 22H25.72L22 18.24C21.6107 17.8452 21.6151 17.2094 22.01 16.82Z" fill="#FAFAFA"/>
</svg>
