<svg width="36" height="36" viewBox="0 0 36 36" fill="none" xmlns="http://www.w3.org/2000/svg">
<path fill-rule="evenodd" clip-rule="evenodd" d="M34 6.58008V11.1201L16 11.0801V6.54008C16 5.15937 14.8807 4.04008 13.5 4.04008C12.1193 4.04008 11 5.15937 11 6.54008V29.5401C11.0013 30.4305 10.7367 31.301 10.24 32.0401H25.58C26.9607 32.0401 28.08 30.9208 28.08 29.5401V13.1301H30.08V29.5001C30.08 31.9854 28.0653 34.0001 25.58 34.0001H6.5C4.01472 34.0001 2 31.9854 2 29.5001V24.0001H7.19V26.0001H4V29.5801C4 30.9608 5.11929 32.0801 6.5 32.0801C7.88071 32.0801 9 30.9608 9 29.5801V6.58008C9 4.0948 11.0147 2.08008 13.5 2.08008H29.5C31.9853 2.08008 34 4.0948 34 6.58008ZM32 6.58008C31.9782 5.21501 30.8652 4.1199 29.5 4.12008L17.24 4.08008C17.7361 4.81938 18.0007 5.68974 18 6.58008V9.12008H32V6.58008Z" fill="#FAFAFA"/>
</svg>
