<svg width="36" height="36" viewBox="0 0 36 36" fill="none" xmlns="http://www.w3.org/2000/svg">
<path fill-rule="evenodd" clip-rule="evenodd" d="M18 2.5C9.18 2.5 2 8.78 2 16.5C2 24.22 9.18 30.5 18 30.5C19.6501 30.4981 21.2922 30.2693 22.88 29.82L28.41 33.34C28.7175 33.5373 29.1081 33.5512 29.4289 33.3762C29.7496 33.2013 29.9494 32.8653 29.95 32.5V25.77C32.4778 23.3451 33.92 20.0027 33.95 16.5C34 8.78 26.82 2.5 18 2.5ZM24.72 12.5C25.2723 12.5 25.72 12.0523 25.72 11.5C25.72 10.9477 25.2723 10.5 24.72 10.5H11.28C10.7277 10.5 10.28 10.9477 10.28 11.5C10.28 12.0523 10.7277 12.5 11.28 12.5H24.72ZM14.25 20.5C13.6977 20.5 13.25 20.9477 13.25 21.5C13.25 22.0523 13.6977 22.5 14.25 22.5H21.75C22.3023 22.5 22.75 22.0523 22.75 21.5C22.75 20.9477 22.3023 20.5 21.75 20.5H14.25ZM25 15.5C25.5523 15.5 26 15.9477 26 16.5C26 17.0523 25.5523 17.5 25 17.5H11C10.4477 17.5 10 17.0523 10 16.5C10 15.9477 10.4477 15.5 11 15.5H25ZM27.97 25.34C27.9709 25.0628 28.0868 24.7985 28.29 24.61C30.6081 22.5457 31.9539 19.6037 32 16.5C32 9.88 25.72 4.5 18 4.5C10.28 4.5 4 9.88 4 16.5C4 23.12 10.28 28.5 18 28.5C19.6139 28.5014 21.2187 28.2587 22.76 27.78C23.0394 27.6935 23.3427 27.7337 23.59 27.89L27.97 30.68V25.34Z" fill="#FAFAFA"/>
</svg>
